<?xml version="1.0" encoding="utf-8"?>
<!-- Generator: Adobe Illustrator 23.1.1, SVG Export Plug-In . SVG Version: 6.00 Build 0)  -->
<svg version="1.1" id="Layer_1" xmlns="http://www.w3.org/2000/svg" xmlns:xlink="http://www.w3.org/1999/xlink" x="0px" y="0px"
	 viewBox="0 0 432 288" style="enable-background:new 0 0 432 288;" xml:space="preserve">
<style type="text/css">
	.st0{enable-background:new    ;}
	.st1{fill:#FFFFFF;}
</style>
<g class="st0">
	<path class="st1" d="M116.55,107.2c-1.02-0.73-1.53-1.84-1.53-3.31c0-0.82,0.08-1.47,0.24-1.96c0.57-2.04,1.84-4.33,3.8-6.86
		c1.96-2.61,4.25-5,6.86-7.16c2.61-2.16,5.59-4.39,8.94-6.67c11.35-7.51,23.18-13.3,35.51-17.39c1.06-0.41,1.79-0.92,2.2-1.53
		c0.41-0.61,0.61-1.57,0.61-2.88c0-2.04-0.41-3.84-1.22-5.39c-0.82-1.55-2.08-2.94-3.8-4.16c-2.45-1.71-5.59-2.86-9.43-3.43
		c-2.78-0.41-6.12-0.61-10.04-0.61c-2.61,0-4.57,0.04-5.88,0.12l-7.1,0.37c-5.39,0.33-9.39,0.49-12,0.49
		c-2.12,0-4.24-0.25-6.37-0.73l-2.08-0.73c-2.37-1.06-3.55-2.49-3.55-4.29c0-1.06,0.37-2.24,1.1-3.55c1.47-2.53,3.88-5.06,7.22-7.59
		c8.49-6.53,18.33-12.2,29.51-17.02c8.33-3.51,16-6.04,23.02-7.59c2.28-0.49,4.04-0.73,5.27-0.73l1.47,0.12
		c0.98,0.08,1.78,0.23,2.39,0.43c0.61,0.21,1.04,0.63,1.29,1.29c0.16,0.49,0.24,0.86,0.24,1.1c0,0.57-0.2,1.16-0.61,1.78
		c-0.41,0.61-0.65,1-0.73,1.16c-1.06,1.47-2.57,2.9-4.53,4.29c-0.57,0.41-1.1,0.49-1.59,0.24c0.16-0.16,0.8-0.71,1.9-1.65
		c1.1-0.94,2.02-1.94,2.75-3c0.08-0.08,0.29-0.35,0.61-0.8c0.33-0.45,0.53-0.88,0.61-1.29c0.08-0.41,0.04-0.82-0.12-1.22
		c-0.24-0.49-0.55-0.82-0.92-0.98c-0.37-0.16-0.88-0.25-1.53-0.25c-3.1,0-6.9,0.65-11.39,1.96c-14.45,4.08-28.61,10.86-42.49,20.33
		c-3.26,2.2-6.08,4.61-8.45,7.22c-1.31,1.31-2.2,2.61-2.69,3.92c-0.33,0.98-0.49,1.63-0.49,1.96c0,1.31,0.73,2.33,2.2,3.06
		c1.47,0.73,3.31,1.18,5.51,1.35c0.9,0.08,2.2,0.12,3.92,0.12c1.3,0,3.35-0.08,6.12-0.25l3.06-0.12c0.81,0,2.04-0.08,3.67-0.25
		c1.22-0.08,2.96-0.16,5.2-0.25c2.24-0.08,4.22-0.12,5.94-0.12c2.45,0,4.98,0.12,7.59,0.37c4,0.41,7.31,1.22,9.92,2.45
		c5.63,2.61,8.45,6.57,8.45,11.88c0,0.9-0.04,1.59-0.12,2.08l0.12,0.49h0.24c0.33,0,0.69-0.06,1.1-0.18
		c0.41-0.12,0.73-0.22,0.98-0.31c7.18-2.12,13.02-3.51,17.51-4.16l0.86-0.12c0.57,0,1.14,0.2,1.71,0.61
		c0.25,0.25,0.29,0.53,0.12,0.86c-0.25,0.25-0.41,0.25-0.49,0c-0.41-0.41-0.94-0.61-1.59-0.61c-0.08,0-0.73,0.12-1.96,0.37
		c-6.61,1.31-12.53,2.82-17.76,4.53c-0.82,0.33-1.35,0.82-1.59,1.47c-2.61,7.67-7.47,15.06-14.57,22.16
		c-9.8,9.8-20.41,16.61-31.84,20.45c-2.61,0.82-4.98,1.22-7.1,1.22C118.98,108.3,117.57,107.93,116.55,107.2z M126.53,106.09
		c17.22-6.12,30.9-16.78,41.02-31.96c2.12-3.18,3.63-6.29,4.53-9.31c-0.49-0.25-0.94-0.25-1.35,0c-14.2,5.06-26.25,11.06-36.12,18
		c-5.39,3.84-9.92,7.92-13.59,12.25c-2.04,2.45-3.35,4.78-3.92,6.98c-0.16,0.82-0.24,1.35-0.24,1.59c0,1.14,0.39,2.04,1.16,2.69
		c0.78,0.65,1.82,0.94,3.12,0.86C122.69,107.2,124.49,106.83,126.53,106.09z"/>
	<path class="st1" d="M215.3,79.77c-1.39,0-2.43-0.47-3.12-1.41c-0.69-0.94-0.96-2.27-0.8-3.98c0.24-2.53,0.73-5.02,1.47-7.47
		c0.16-0.73,0.73-2.73,1.71-6c0-0.16,0.08-0.41,0.24-0.73c0.16-0.33,0.16-0.65,0-0.98c0.73-1.14,1.33-2.51,1.78-4.1
		c0.45-1.59,0.8-2.75,1.04-3.49c-1.39,0.74-2.2,1.76-2.45,3.06c-0.33,2.12-0.45,3.63-0.37,4.53h-0.37c-0.49,0-0.82-0.14-0.98-0.43
		c-0.16-0.29-0.25-0.63-0.25-1.04c0-0.41-0.04-0.73-0.12-0.98h-0.12c-0.33,0-0.57,0.12-0.73,0.37c-0.16,0.25-0.29,0.41-0.37,0.49
		l-11.02,13.35c-0.49,0.49-1.29,1.35-2.39,2.57s-2.19,2.29-3.25,3.18c-1.14,0.98-2.12,1.59-2.94,1.84
		c-0.24,0.08-0.57,0.12-0.98,0.12c-0.73,0-1.3-0.25-1.71-0.73c-0.41-0.49-0.57-1.14-0.49-1.96c0.16-1.3,0.37-2.28,0.61-2.94
		c4.16-10.94,9.22-20.16,15.18-27.67c0.98-1.31,2.12-2.45,3.43-3.43c0.98-0.65,1.75-1.1,2.33-1.35c0.73-0.33,1.47-0.49,2.2-0.49
		c1.79,0,2.86,1.1,3.18,3.31c0.16,0.49,0.25,1.27,0.25,2.33c0,0.98-0.04,1.76-0.12,2.33c0,0.17-0.04,0.43-0.12,0.8
		c-0.08,0.37,0,0.72,0.25,1.04l2.08-1.59c0.49-0.16,0.77-0.25,0.86-0.25c0.41,0,0.71,0.17,0.92,0.49c0.2,0.33,0.26,0.73,0.18,1.22
		c0,0.16-0.25,1.06-0.73,2.69l-1.22,3.67c-2.12,5.96-3.51,10.65-4.16,14.08c-0.49,2.12-0.73,3.76-0.73,4.9
		c0,1.22,0.16,2.1,0.49,2.63c0.33,0.53,0.9,0.8,1.71,0.8c0.25,0,0.69-0.08,1.35-0.25c1.14-0.33,2.28-0.82,3.43-1.47
		c6.69-3.67,12-7.88,15.92-12.61c0.25-0.25,0.63-0.65,1.16-1.22c0.53-0.57,0.9-1.16,1.1-1.78c0.2-0.61,0.26-1.29,0.18-2.02
		c0-0.16,0.06-0.29,0.18-0.37c0.12-0.08,0.26-0.12,0.43-0.12c0.74,0,1.14,0.25,1.22,0.74c0.08,0.16,0.12,0.37,0.12,0.61
		c0,0.24-0.04,0.47-0.12,0.67c-0.08,0.21-0.16,0.39-0.25,0.55c-0.82,1.39-1.67,2.57-2.57,3.55c-5.23,5.8-10.57,10.08-16.04,12.86
		c-1.96,0.98-3.47,1.59-4.53,1.84C216.28,79.69,215.63,79.77,215.3,79.77z M194.24,75.6c1.55-1.55,3.06-3.18,4.53-4.9
		c6.37-7.51,11.1-13.14,14.2-16.9c0.65-0.65,0.98-1.35,0.98-2.08c0.33-1.96,0.49-4.16,0.49-6.61c-0.16-1.3-0.41-2.29-0.73-2.94
		c-0.41-0.9-1.02-1.1-1.84-0.61c-1.14,0.65-1.96,1.18-2.45,1.59c-1.63,1.39-3.06,2.94-4.29,4.65c-6.04,8.49-10.41,16.7-13.1,24.61
		c-0.57,1.31-0.86,2.45-0.86,3.43c0,0.41,0.08,0.94,0.25,1.59C192.33,77.19,193.26,76.58,194.24,75.6z"/>
	<path class="st1" d="M230.37,131.69c-1.63,0-2.65-0.9-3.06-2.69c-0.16-0.98-0.24-1.71-0.24-2.2c0-0.9,0.16-2.25,0.49-4.04
		c0.82-4.65,3.02-10.16,6.61-16.53c2.53-4.33,5.49-8.37,8.88-12.12c3.39-3.76,7.53-7.92,12.43-12.49c0.16-0.16,1.79-1.55,4.9-4.16
		c0.82-0.65,1.3-1.22,1.47-1.71l1.35-3.67c2.45-6.2,4.08-10.94,4.9-14.21c0.25-0.73,0.45-1.84,0.61-3.31c0-1.39-0.41-2.16-1.22-2.33
		h-0.61c-0.9,0-1.51,0.37-1.84,1.1c-0.25,0.49-0.47,0.8-0.67,0.92c-0.2,0.12-0.55-0.02-1.04-0.43c-0.08-0.08-0.21-0.12-0.37-0.12
		c-0.16,0-0.57,0.21-1.22,0.61c-2.12,1.06-5.43,3.14-9.92,6.25c-4.08,2.78-7.18,4.78-9.31,6c-1.63,0.98-2.94,1.59-3.92,1.84h-0.98
		c-0.81,0-1.43-0.2-1.84-0.61c-0.33-0.33-0.49-0.73-0.49-1.22c0-0.57,0.12-1.1,0.37-1.59c0.17-0.49,0.41-0.98,0.73-1.47
		c4-6.69,9.43-11.47,16.29-14.33c1.88-0.98,3.96-1.39,6.25-1.22c2.37,0,4.16,0.86,5.39,2.57c0.41,0.49,0.86,0.73,1.35,0.73
		l1.96-0.12c1.96,0.08,2.98,1.1,3.06,3.06v0.61c0,0.98-0.12,1.92-0.37,2.82c-0.57,2.61-1.41,5.37-2.51,8.27
		c-1.1,2.9-1.78,4.67-2.02,5.33c-0.08,0.17-0.2,0.49-0.37,0.98c-0.16,0.49-0.29,0.98-0.37,1.47c0.57-0.08,1.06-0.29,1.47-0.61
		c0.41-0.33,0.69-0.53,0.86-0.61c8.41-5.79,17.27-10.33,26.57-13.59c1.22-0.33,2.04-0.53,2.45-0.61c0.16-0.08,0.35-0.06,0.55,0.06
		c0.2,0.12,0.31,0.27,0.31,0.43c0.08,0.41-0.12,0.69-0.61,0.86L296,59.81l-0.98-0.25c-0.49,0-1,0.14-1.53,0.43
		c-0.53,0.29-0.96,0.47-1.29,0.55c-10.7,4.25-19.71,9.23-27.06,14.94c-0.98,0.73-1.71,1.76-2.2,3.06
		c-4.9,12.25-9.27,21.84-13.1,28.78c-4.16,7.43-8.37,13.84-12.61,19.22l-3.18,3.31c-0.41,0.57-1.06,1.06-1.96,1.47
		C231.51,131.56,230.94,131.69,230.37,131.69z M234.16,127.28c2.37-2.94,4.53-5.84,6.49-8.69c6.94-10.45,13.31-23.02,19.1-37.72
		c0.16-0.33,0.16-0.73,0-1.22l-3.8,3.31c-8.57,7.59-15.1,15.1-19.59,22.53c-3.59,5.88-5.92,11.59-6.98,17.14
		c-0.33,1.63-0.49,2.82-0.49,3.55c0,0.9,0.12,1.75,0.37,2.57c0.24,1.06,0.61,1.59,1.1,1.59c0.33,0,0.78-0.24,1.35-0.73
		C232.37,129.2,233.18,128.42,234.16,127.28z M240.53,66.17c2.94-1.79,5.14-3.18,6.61-4.16c2.53-1.71,5.16-3.45,7.9-5.2
		c2.73-1.75,5.28-3.25,7.65-4.47l0.61-0.49c-0.57-1.14-1.63-2-3.18-2.57c-0.73-0.25-1.39-0.37-1.96-0.37
		c-1.06,0-2.25,0.29-3.55,0.86c-7.18,3.02-12.74,7.92-16.65,14.69c-0.33,0.41-0.57,1.02-0.73,1.84c0,0.82,0.33,1.1,0.98,0.86
		C239.18,66.91,239.96,66.58,240.53,66.17z"/>
	<path class="st1" d="M299.06,85.28c-2.37,0-4.27-0.75-5.69-2.26c-1.43-1.51-2.14-3.61-2.14-6.31v-1.22c0-3.43,0.94-7.79,2.82-13.1
		c2.2-6.29,5.55-11.84,10.04-16.65c1.71-1.79,3.35-3.18,4.9-4.16c1.14-0.73,2.28-1.1,3.43-1.1c1.88,0,2.82,0.86,2.82,2.57
		c0,0.49-0.08,1.14-0.24,1.96c-0.98,3.27-2.65,6.08-5.02,8.45c-2.86,2.86-6.33,5.35-10.41,7.47c-0.16,0.08-0.39,0.23-0.67,0.43
		c-0.29,0.21-0.55,0.27-0.8,0.18h-0.25c-0.73,0-1.25,0.21-1.53,0.61c-0.29,0.41-0.59,1.06-0.92,1.96c-0.98,3.18-1.71,6.45-2.2,9.8
		c-0.16,2.45,0,4.45,0.49,6c0.9,2.78,2.73,4.16,5.51,4.16c2.37,0,4.73-0.86,7.1-2.57c7.35-5.22,13.59-11.8,18.74-19.71
		c0.08-0.08,0.2-0.29,0.37-0.61c0.16-0.33,0.12-0.69-0.12-1.1c-0.08-0.08-0.12-0.2-0.12-0.37c0-0.24,0.29-0.57,0.86-0.98
		c0.41-0.25,0.81-0.25,1.22,0c0.33,0.33,0.41,0.69,0.25,1.1c-0.41,1.14-0.74,1.92-0.98,2.33c-5.31,8.65-11.39,15.27-18.25,19.84
		c-1.96,1.31-3.96,2.25-6,2.82C300.78,85.11,299.71,85.28,299.06,85.28z M299.55,59.81c3.26-1.88,6.04-3.92,8.33-6.12
		c2.53-2.45,4.2-5.06,5.02-7.84c0.08-0.25,0.2-0.61,0.37-1.1c0.16-0.49,0.2-0.9,0.12-1.22c0-1.22-0.37-1.84-1.1-1.84l-1.1,0.25
		c-0.82,0.33-1.71,0.9-2.69,1.71c-4.33,3.76-7.96,8.74-10.9,14.94l-0.12,0.49v0.25c0,0.33,0.1,0.59,0.31,0.8
		c0.2,0.21,0.47,0.27,0.8,0.18C298.74,60.3,299.06,60.13,299.55,59.81z"/>
</g>
<g class="st0">
	<path class="st1" d="M66.03,224.73c0.16-0.98,0.33-1.8,0.49-2.45c1.06-4.25,3.06-10.53,6-18.86l2.57-7.35l1.59-4.53h-0.61
		c-0.49,0-1.04,0.04-1.65,0.12c-0.61,0.08-1.08,0.17-1.41,0.25c-1.39,0.25-2.61,0.33-3.67,0.25c-0.57-0.08-0.92-0.31-1.04-0.67
		c-0.12-0.37,0.02-0.75,0.43-1.16l1.96-1.35l2.94-1.84c0.57-0.41,1.27-0.86,2.08-1.35c0.82-0.49,1.76-1.06,2.82-1.71
		c0.73-0.33,1.39-1.1,1.96-2.33c0.41-0.98,0.73-1.88,0.98-2.69c3.67-9.55,6.69-17.18,9.06-22.9c2.37-5.71,4.98-11.43,7.84-17.14
		l1.22-2.45c0.57-1.3,1.26-2.73,2.08-4.29l0.73-1.22c0.33-0.49,0.73-0.65,1.22-0.49c0.25,0.16,0.37,0.37,0.37,0.61
		s-0.04,0.45-0.12,0.61l-0.86,1.71c-6.61,13.96-13.02,29.06-19.23,45.31c0,0.17-0.08,0.43-0.25,0.8c-0.16,0.37-0.24,0.84-0.24,1.41
		l12.12-8.2c1.79-1.22,3.59-2.73,5.39-4.53c11.02-11.02,22.98-21.71,35.88-32.08l2.33-1.47c0.65-0.33,1.14-0.33,1.47,0
		c0.24,0.25,0.37,0.45,0.37,0.61c0,0.25-0.16,0.53-0.49,0.86c-0.49,0.9-1.43,2.12-2.82,3.67c-7.02,7.76-15.06,15.06-24.12,21.92
		c-8.08,6.12-17.76,12.9-29.02,20.33c-1.96,1.14-3.14,2.65-3.55,4.53l-0.98,2.45c1.06,0.08,2.18-0.02,3.37-0.31
		c1.18-0.29,1.98-0.47,2.39-0.55c11.84-2.37,24-4,36.49-4.9c7.84-0.57,14.49-0.86,19.96-0.86c2.77,0,4.86,0.04,6.25,0.12
		c0.65,0,1.41,0.04,2.27,0.12c0.86,0.08,1.49,0.16,1.9,0.25c0.73,0,1.18,0.24,1.35,0.73c-0.33,0.49-0.94,0.65-1.84,0.49
		c-2.12-0.49-4.78-0.74-7.96-0.74l-4.41,0.12c-12.73,0.41-24.12,1.27-34.16,2.57c-5.55,0.73-13.8,2.16-24.74,4.29
		c-0.98,0.16-1.63,0.65-1.96,1.47c-4.33,11.51-7.75,21.43-10.29,29.76l0.12,0.61c0.41-0.33,0.82-1.02,1.22-2.08l5.88-12.25
		c0.08-0.16,0.18-0.43,0.31-0.8c0.12-0.37,0.27-0.61,0.43-0.74c0.16-0.12,0.41-0.1,0.73,0.06c0.24,0.08,0.37,0.25,0.37,0.49
		c0,0.17-0.1,0.39-0.31,0.67c-0.2,0.29-0.35,0.55-0.43,0.8l-6.98,14.69c-0.25,0.57-0.73,1.43-1.47,2.57
		c-0.41,0.49-0.81,0.74-1.22,0.74C66.24,226.45,65.87,225.88,66.03,224.73z M72.89,190.69c0.49,0,1.08-0.08,1.78-0.24
		c0.69-0.16,1.29-0.29,1.78-0.37c0.65-0.16,1.06-0.49,1.22-0.98c0.08-0.25,0.23-0.67,0.43-1.29c0.2-0.61,0.35-1.24,0.43-1.9
		l-7.1,4.53C72.08,190.61,72.57,190.69,72.89,190.69z M123.28,151.75c7.31-6.37,11.9-11.14,13.78-14.33
		c-12.57,9.72-23.59,19.39-33.06,29.02C109.55,163.02,115.97,158.12,123.28,151.75z"/>
	<path class="st1" d="M190.45,210.41v-0.49c0-0.49,0.08-1.14,0.24-1.96c1.14-4.65,2.86-10.16,5.14-16.53
		c1.63-4.57,3.92-10.29,6.86-17.14c0.08-0.25,0.29-0.71,0.61-1.41c0.33-0.69,0.53-1.45,0.61-2.27c-1.14,0.98-1.94,1.71-2.39,2.2
		c-0.45,0.49-0.72,1.18-0.8,2.08c-0.08,0.73-0.31,1.35-0.67,1.84c-0.37,0.49-0.96,1.14-1.78,1.96c-1.8,2.04-4.04,4-6.73,5.88
		c-2.53,1.8-4.74,3.67-6.61,5.63c-0.9,1.06-2.16,2.2-3.8,3.43c-0.08,0.08-0.41,0.29-0.98,0.61c-0.57,0.33-1.1,0.41-1.59,0.24h-0.61
		c-0.57,0-1.16,0.17-1.78,0.49c-0.61,0.33-1,0.53-1.16,0.61c-2.78,1.71-5.1,3.1-6.98,4.16c-1.88,1.06-3.84,1.96-5.88,2.69
		c-2.61,0.98-4.9,1.63-6.86,1.96c-2.45,0.25-4.41-0.25-5.88-1.47c-1.47-1.22-2.2-2.98-2.2-5.26c0-1.63,0.49-3.92,1.47-6.86
		c3.02-8,7.84-15.31,14.45-21.92c0.98-0.98,2.16-1.96,3.55-2.94c0.73-0.65,1.59-1.1,2.57-1.35c0.82-0.33,1.43-0.49,1.84-0.49
		c0.65,0,1.22,0.25,1.71,0.74c0.49,0.49,0.73,0.98,0.73,1.47c0,0.49-0.16,1.14-0.49,1.96c-0.57,1.8-1.51,3.71-2.82,5.75
		c-2.53,3.76-6,7.18-10.41,10.29c-2.04,1.39-3.76,2.08-5.14,2.08c-0.57,0-0.98-0.04-1.22-0.12h-0.24c-0.33,0-0.61,0.21-0.86,0.61
		c-1.06,2.12-1.88,4.08-2.45,5.88c-0.57,1.8-0.86,3.59-0.86,5.39c0,1.71,0.47,3.04,1.41,3.98c0.94,0.94,2.22,1.41,3.86,1.41
		c1.22,0,2.43-0.18,3.61-0.55c1.18-0.37,2.31-0.77,3.37-1.22c1.06-0.45,1.84-0.75,2.33-0.92c2.69-1.22,6.57-3.39,11.63-6.49
		c0.33-0.25,0.61-0.51,0.86-0.8c0.25-0.29,0.33-0.63,0.25-1.04v-0.37c0-0.98,0.29-2.04,0.86-3.18c2.45-5.39,6.2-10.04,11.27-13.96
		c1.71-1.3,3.47-2.24,5.27-2.82c1.47-0.49,2.61-0.73,3.43-0.73c0.33,0,0.9,0.08,1.71,0.25c0.16,0.08,0.41,0.12,0.73,0.12
		c0.49,0,0.94-0.2,1.35-0.61c0.9-0.98,1.88-1.84,2.94-2.57c0.65-0.65,1.35-0.78,2.08-0.37c0.33,0.24,0.49,0.53,0.49,0.86
		c0,0.33-0.08,0.74-0.25,1.22c-0.49,1.71-1.18,3.63-2.08,5.76l-0.98,2.33c-2.45,6.21-4.45,11.39-6,15.55
		c-1.55,4.16-2.94,8.37-4.16,12.61c-0.57,1.88-0.86,3.14-0.86,3.8c0,0.08,0,0.26,0,0.55c0,0.29-0.16,0.47-0.49,0.55
		C190.85,211.51,190.45,211.14,190.45,210.41z M157.14,184.81c6.77-4.57,11.39-9.75,13.84-15.55c0.33-0.74,0.57-1.55,0.73-2.45
		c0-0.65-0.12-1.06-0.37-1.22c-0.25-0.16-0.69-0.12-1.35,0.12c-1.22,0.49-2.61,1.43-4.16,2.82c-4.41,4-8.29,8.98-11.63,14.94
		c-0.16,0.25-0.33,0.61-0.49,1.1l-0.12,0.49c0,0.41,0.33,0.61,0.98,0.61C155.63,185.51,156.49,185.22,157.14,184.81z M181.26,190.45
		c0.33-0.25,1.14-0.82,2.45-1.71c1.3-0.9,2.45-1.88,3.43-2.94l6.37-6.86l3.06-3.31l1.59-1.59c0.41-0.33,0.53-0.65,0.37-0.98
		c-0.08-0.16-0.25-0.29-0.49-0.37c-0.24-0.08-0.41-0.12-0.49-0.12h-0.49c-0.65,0-1.31,0.12-1.96,0.37
		c-1.63,0.66-3.14,1.43-4.53,2.33c-5.31,3.51-9.23,8.37-11.76,14.57c0,0.08-0.1,0.33-0.31,0.73c-0.2,0.41-0.23,0.98-0.06,1.71
		L181.26,190.45z M198.28,176.73l-0.37-0.37l-4.78,5.02C195.34,180.24,197.06,178.69,198.28,176.73z"/>
	<path class="st1" d="M201.96,206.12c0-0.25,0.08-0.69,0.25-1.35c1.14-3.59,2.9-7.67,5.27-12.25l9.92-18.98
		c0.41-0.9,0.77-1.47,1.1-1.71c0.33-0.33,0.69-0.33,1.1,0c0.16,0.16,0.16,0.45,0,0.86c-0.49,1.22-0.86,2.53-1.1,3.92
		c0,0.49-0.12,0.74-0.37,0.74c-0.49,0.08-0.86,0.24-1.1,0.49c-0.25,0.25-0.45,0.55-0.61,0.92c-0.17,0.37-0.29,0.63-0.37,0.8
		l-2.69,5.26c-3.26,6.37-5.59,11.23-6.98,14.57c-0.08,0.17-0.26,0.51-0.55,1.04c-0.29,0.53-0.39,1.16-0.31,1.9
		c0.33-0.57,0.69-1.22,1.1-1.96c0.41-0.73,0.86-1.51,1.35-2.33c0.49-0.98,1.06-2.04,1.71-3.18c2.94-5.06,5.43-8.94,7.47-11.63
		c0.98-1.22,1.92-2.24,2.82-3.06c0.82-0.82,1.59-1.22,2.33-1.22c0.65,0,1.43,0.37,2.33,1.1c0.25,0.25,0.63,0.61,1.16,1.1
		c0.53,0.49,1,0.86,1.41,1.1c3.26,2.29,6.78,3.43,10.53,3.43c1.39,0,3.02-0.2,4.9-0.61c1.14-0.25,2.45-0.98,3.92-2.2
		c0.41-0.41,0.73-0.45,0.98-0.12c0.25,0.16,0.29,0.33,0.12,0.49c-0.17,0.17-0.29,0.29-0.37,0.37c-1.14,1.14-2.53,1.92-4.16,2.33
		c-1.96,0.49-3.88,0.73-5.75,0.73c-5.14,0-9.59-1.71-13.35-5.14c-0.33-0.25-0.61-0.53-0.86-0.86c-0.24-0.25-0.53-0.37-0.86-0.37
		c-0.33,0-0.61,0.16-0.86,0.49c-0.98,0.9-2.04,2.12-3.18,3.67c-2.04,2.69-4.57,6.78-7.59,12.25l-4.65,8.2
		c-0.81,1.31-1.75,2.25-2.82,2.82h-0.37C202.24,207.22,201.96,206.69,201.96,206.12z"/>
	<path class="st1" d="M265.51,208.2c-1.47,0-2.53-0.81-3.18-2.45c-0.41-0.9-0.53-2.21-0.37-3.92c0.41-4.24,1.55-9.43,3.43-15.55
		c0.24-0.73,0.65-1.98,1.22-3.73c0.57-1.75,0.94-3.33,1.1-4.71c0.16-0.81,0.24-1.51,0.24-2.08c0-0.41-0.04-0.73-0.12-0.98
		c-0.65,0.17-1.22,0.45-1.71,0.86c-0.49,0.41-0.78,0.65-0.86,0.73c-2.69,2.21-5.75,5.63-9.18,10.29l-2.57,3.43
		c-3.27,4.49-5.59,7.59-6.98,9.31c-1.06,1.55-2,2.65-2.82,3.31c-0.65,0.65-1.26,0.98-1.84,0.98c-0.25,0-0.57-0.12-0.98-0.37
		c-0.65-0.33-0.98-0.82-0.98-1.47c0-0.33,0.08-0.73,0.25-1.22c1.14-3.84,1.92-6.41,2.33-7.71l1.1-3.43
		c0.41-1.39,0.98-2.94,1.71-4.65c0.16-0.41,0.57-1.49,1.22-3.24c0.65-1.75,1.1-3.41,1.35-4.96c0.16-1.06,0.53-1.96,1.1-2.69
		c0.25-0.33,0.53-0.49,0.86-0.49c0.73,0,1.02,0.37,0.86,1.1c0,0.41-0.16,1.18-0.49,2.33l-4.53,12.61c-1.71,4.57-2.82,8.21-3.31,10.9
		l-0.12,1.35c0.98-0.65,1.67-1.43,2.08-2.33l3.92-5.14c1.88-2.53,3.71-4.98,5.51-7.35c3.51-4.49,6.65-8.04,9.43-10.65
		c1.39-1.22,2.41-2,3.06-2.33c0.57-0.33,1.14-0.49,1.71-0.49s0.98,0.08,1.22,0.25c0.57,0.25,0.86,0.86,0.86,1.84
		c0,1.63-0.41,3.84-1.22,6.61c-0.16,0.57-0.61,2.08-1.35,4.53c-1.47,5.06-2.45,8.9-2.94,11.51c-0.08,0.25-0.25,1.02-0.49,2.33
		c-0.25,1.31-0.33,2.57-0.25,3.8c0.16,1.22,0.41,2,0.74,2.33c0.33,0.33,1.1,0.53,2.33,0.61c0.16,0,0.29,0.04,0.37,0.12
		c0.08,0.08,0.16,0.16,0.25,0.24C266.81,208,266.16,208.2,265.51,208.2z"/>
	<path class="st1" d="M293.67,281.67c0,0-0.29,0-0.86,0c-1.8,0-3.02-1.14-3.67-3.43c-0.17-1.14-0.25-2-0.25-2.57
		c0-2.94,0.41-5.82,1.22-8.63c0.81-2.82,2-6.02,3.55-9.61c4.24-9.88,11.02-19.96,20.33-30.25c6.37-7.02,13.51-13.63,21.43-19.84
		c1.14-0.98,1.88-2.08,2.2-3.31c0.73-2.86,1.26-4.73,1.59-5.63c2.28-8.49,3.8-14.73,4.53-18.74c0.08-0.41,0.2-1.1,0.37-2.08
		c0.16-0.98,0.24-1.88,0.24-2.69c0-0.74-0.04-1.26-0.12-1.59c0-0.49-0.08-0.9-0.25-1.22c-0.16-0.33-0.37-0.49-0.61-0.49
		c-0.16,0-0.57,0.21-1.22,0.61c-1.96,1.47-3.43,2.61-4.41,3.43c-3.76,3.18-8,7.27-12.74,12.25c-0.33,0.41-1.57,1.74-3.73,3.98
		c-2.16,2.25-4.35,4.22-6.55,5.94c-1.63,1.31-2.86,2.25-3.67,2.82c-0.49,0.33-1.22,0.73-2.2,1.22c-1.31,0.49-2.25,0.73-2.82,0.73
		c-0.82,0-1.47-0.2-1.96-0.61c-0.98-0.65-1.47-1.67-1.47-3.06c0-0.74,0.04-1.27,0.12-1.59c0.33-2.53,1.39-6.04,3.18-10.53l0.98-2.57
		l1.59-4.29c-0.49,0.25-0.88,0.55-1.16,0.92c-0.29,0.37-0.51,0.63-0.67,0.8c-6.12,6.78-10.9,11.68-14.33,14.69
		c-3.59,3.1-6.61,5.35-9.06,6.74c-1.14,0.57-2.1,1-2.88,1.29c-0.78,0.29-1.61,0.39-2.51,0.31c-2.61,0-4.12-1.3-4.53-3.92
		c-0.08-0.24-0.12-0.65-0.12-1.22c0-0.98,0.2-2.08,0.61-3.31c2.61-9.06,7.55-17.06,14.82-24c0.98-0.82,1.96-1.51,2.94-2.08
		c0.82-0.49,1.63-0.69,2.45-0.61c1.47,0,1.96,0.65,1.47,1.96c-0.08,0.49-0.25,0.94-0.49,1.35c-3.76,6.45-8.61,12.12-14.57,17.02
		c-0.33,0.33-0.57,0.49-0.74,0.49c-0.98,0.33-1.71,0.88-2.2,1.65c-0.49,0.78-0.9,1.74-1.22,2.88c-0.08,0.49-0.26,1.22-0.55,2.2
		c-0.29,0.98-0.43,1.84-0.43,2.57c0,2.61,0.86,3.92,2.57,3.92c0.57,0,1.06-0.08,1.47-0.24c1.96-0.65,3.96-1.79,6-3.43
		c3.43-2.45,7.75-6.37,12.98-11.76c1.55-1.55,4.82-5.1,9.8-10.65l2.2-2.57c0.08-0.08,0.29-0.33,0.61-0.74
		c0.33-0.41,0.74-0.65,1.22-0.73l0.37-0.12c0.33,0,0.55,0.12,0.67,0.37c0.12,0.25,0.14,0.57,0.06,0.98
		c-0.08,0.41-0.21,0.76-0.37,1.04c-0.17,0.29-0.29,0.55-0.37,0.8c-3.35,7.27-5.67,13.31-6.98,18.12c-0.49,1.8-0.73,3.23-0.73,4.29
		c0,1.63,0.49,2.45,1.47,2.45c0.25,0,0.78-0.16,1.59-0.49c1.06-0.57,2.12-1.26,3.18-2.08c1.96-1.47,4.69-3.96,8.2-7.47l4.53-4.65
		c5.31-5.47,9.43-9.39,12.37-11.75l3.8-2.94c0.57-0.41,1.22-0.81,1.96-1.22c0.98-0.33,1.59-0.49,1.84-0.49
		c1.63,0,2.53,1.06,2.69,3.18c0.16,2.12-0.12,4.94-0.86,8.45c-1.47,6.69-2.98,12.86-4.53,18.49c-0.08,0.25-0.23,0.63-0.43,1.16
		c-0.21,0.53-0.27,1.04-0.18,1.53c0.49-0.16,1.26-0.69,2.33-1.59c9.14-6.94,17.59-12.53,25.35-16.78c1.63-0.98,2.94-1.63,3.92-1.96
		c0.73-0.33,1.3-0.29,1.71,0.12c0.16,0.17,0.25,0.37,0.25,0.61c0,0.08-0.2,0.45-0.61,1.1c-0.73,0.98-1.14,1.51-1.22,1.59
		c-0.33,0.49-0.73,0.57-1.22,0.25c-0.24-0.33-0.2-0.65,0.12-0.98c0.25-0.41,0.25-0.73,0-0.98l-8.08,4.78
		c-3.43,2.04-6.84,4.27-10.22,6.67c-3.39,2.41-7.33,5.37-11.82,8.88c-1.22,0.82-2,1.96-2.33,3.43c-5.8,18.37-13.71,35.63-23.76,51.8
		c-3.76,6.04-7.76,11.18-12,15.43c-1.63,1.63-3.31,3.06-5.02,4.29c-0.9,0.65-1.92,1.18-3.06,1.59
		C294.04,281.55,293.67,281.67,293.67,281.67z M287.73,180.9c2.49-3.02,4.51-6.33,6.06-9.92c-1.71,0.74-3.72,2.27-6,4.59
		c-2.29,2.33-4.31,4.88-6.06,7.65c-1.76,2.78-2.8,5.06-3.12,6.86C282.2,186.98,285.24,183.92,287.73,180.9z M299.79,275.8
		c4.41-4.16,8.33-8.98,11.75-14.45c10.2-16.33,18.16-33.06,23.88-50.21c0-0.08,0.06-0.31,0.18-0.67c0.12-0.37,0.1-0.71-0.06-1.04
		c-0.33,0-0.63,0.14-0.92,0.43c-0.29,0.29-0.47,0.47-0.55,0.55c-5.63,4.49-11.1,9.55-16.41,15.18c-4.25,4.49-7.98,8.84-11.2,13.04
		c-3.23,4.2-5.98,8.63-8.27,13.29c-3.59,7.18-5.92,13.84-6.98,19.96c-0.16,1.47-0.25,2.53-0.25,3.18c0,1.14,0.12,2.2,0.37,3.18
		c0.33,1.31,0.9,1.96,1.71,1.96c0.49,0,1.02-0.17,1.59-0.49C295.96,279.06,297.67,277.76,299.79,275.8z"/>
</g>
</svg>
