<?xml version="1.0" encoding="utf-8"?>
<!-- Generator: Adobe Illustrator 23.1.1, SVG Export Plug-In . SVG Version: 6.00 Build 0)  -->
<svg version="1.1" id="Layer_1" xmlns="http://www.w3.org/2000/svg" xmlns:xlink="http://www.w3.org/1999/xlink" x="0px" y="0px"
	 viewBox="0 0 432 288" style="enable-background:new 0 0 432 288;" xml:space="preserve">
<style type="text/css">
	.st0{fill:#97A096;}
	.st1{fill:#F2F4F7;}
</style>
<g>
	<g>
		<path class="st0" d="M7.06,186.26c-0.4,0-0.71-0.14-0.94-0.42c-0.17-0.28-0.25-0.57-0.25-0.85c0-0.45,0.17-0.85,0.51-1.19
			l2.38-2.98c0.4-0.4,0.6-0.94,0.6-1.62c0-11.39-0.08-19.92-0.25-25.59c-0.06-1.98-0.26-4.96-0.6-8.93
			c-0.11-1.08-0.17-2.64-0.17-4.68v-3.15c0-0.62-0.07-1.13-0.21-1.53c-0.14-0.4-0.44-0.77-0.89-1.11c-0.4-0.28-0.81-0.65-1.23-1.11
			c-0.43-0.45-0.72-0.77-0.89-0.94c-0.11-0.06-0.31-0.31-0.6-0.77c-0.23-0.45-0.34-0.71-0.34-0.77c0-0.4,0.34-0.62,1.02-0.68
			c0.4-0.06,0.89-0.11,1.49-0.17c0.6-0.06,1.06-0.08,1.4-0.08l9.18-0.26c0.79,0,2.1-0.06,3.91-0.17c2.49-0.11,4.42-0.17,5.78-0.17
			l0.68-0.08c0.34,0,0.57,0.17,0.68,0.51c0.06,0.06,0.08,0.17,0.08,0.34s-0.08,0.37-0.25,0.6c-0.17,0.23-0.28,0.37-0.34,0.43
			l-3.15,3.91c-0.45,0.45-0.65,0.96-0.6,1.53l-0.08,2.89c0.06,0.91,0.08,2.3,0.08,4.17c0,2.1-0.06,4.48-0.17,7.14
			c-0.11,2.67-0.2,4.54-0.25,5.61l-0.26,5.1c0,0.06,0,0.17,0,0.34c0,0.17,0.06,0.31,0.17,0.42c1.76-1.59,3.03-2.8,3.83-3.66
			c0.79-1.02,1.64-1.96,2.55-2.8c0.79-0.79,2.44-2.72,4.93-5.78l1.79-2.29c4.82-5.9,8.79-10.4,11.9-13.52l0.94-0.94
			c-0.28-0.34-0.82-0.68-1.62-1.02l-2.38-0.94c-0.45-0.23-0.68-0.48-0.68-0.77v-0.17c0-0.28,0.2-0.51,0.6-0.68
			c0.17-0.17,0.4-0.28,0.68-0.34c0.28-0.06,0.45-0.08,0.51-0.08l11.82-0.51h0.68c0.34,0,0.6,0.03,0.77,0.08
			c0.34,0.17,0.51,0.43,0.51,0.77c0,0.28-0.14,0.51-0.43,0.68l-0.34,0.17c-1.08,0.34-2.5,0.94-4.25,1.79l-2.13,1.02
			c-0.51,0.28-0.82,0.54-0.94,0.77c-0.79,1.19-2.13,2.83-4,4.93l-1.53,1.79L35.55,153.7l-2.64,2.98c-0.06,0.11-0.16,0.23-0.3,0.34
			c-0.14,0.11-0.24,0.25-0.3,0.42c0.17,0.11,0.34,0.14,0.51,0.08c0.17-0.06,0.28-0.08,0.34-0.08c0.91-0.11,1.59-0.17,2.04-0.17
			c2.83,0,5.21,1.08,7.14,3.23c0.62,0.68,1.2,1.47,1.74,2.38c0.54,0.91,1.03,1.79,1.49,2.63l3.57,6.89c0.51,0.96,1.3,1.93,2.38,2.89
			c0.4,0.4,0.88,0.6,1.45,0.6c0.34,0,0.71-0.08,1.11-0.25c1.59-0.68,2.72-1.39,3.4-2.13l1.45-1.53c0.23-0.23,0.48-0.28,0.77-0.17
			c0.28,0.17,0.37,0.42,0.25,0.76c0,0.34-0.08,0.59-0.25,0.77c-0.45,0.96-0.96,1.91-1.53,2.85c-0.57,0.93-1.16,1.74-1.79,2.42
			c-1.48,1.7-2.95,3.35-4.42,4.93c-0.96,1.02-2.1,1.79-3.4,2.3c-0.85,0.28-1.62,0.42-2.3,0.42c-1.59,0-3.03-0.65-4.34-1.96
			c-0.96-0.96-1.8-1.98-2.51-3.06c-0.71-1.08-1.6-2.52-2.68-4.34l-1.87-3.49c-1.59-2.89-2.72-4.88-3.4-5.95
			c-1.13-1.64-2.41-2.86-3.83-3.66c-0.23-0.17-0.45-0.25-0.68-0.25c-0.28,0-0.57,0.17-0.85,0.51c-0.57,0.68-1.28,1.42-2.13,2.21
			c-0.57,0.51-0.85,1.13-0.85,1.87c0.11,2.49,0.17,4.34,0.17,5.53l0.08,4.51c0,0.74,0.23,1.33,0.68,1.79
			c0.06,0.06,0.43,0.51,1.11,1.36c0.79,1.02,1.42,1.76,1.87,2.21c0.57,0.45,0.74,0.91,0.51,1.36c-0.17,0.51-0.65,0.77-1.45,0.77
			c-2.61,0.11-4.56,0.17-5.87,0.17l-5.02,0.17c-2.5,0-5.02,0.08-7.57,0.25H7.06z"/>
		<path class="st0" d="M71.26,186.43c-0.68-0.17-1.02-0.48-1.02-0.93c0-0.23,0.14-0.54,0.43-0.94c1.19-1.36,2.21-2.66,3.06-3.91
			c0.34-0.45,0.48-0.91,0.42-1.36c-0.17-2.38-0.25-5.95-0.25-10.71l-0.17-7.99l-0.17-4.42c-0.23-6.01-0.45-10.54-0.68-13.6
			c-0.06-0.79-0.08-2.01-0.08-3.66c0-0.79-0.37-1.56-1.11-2.3l-3.66-3.66c-0.11-0.11-0.25-0.24-0.42-0.38
			c-0.17-0.14-0.28-0.28-0.34-0.42c-0.06-0.14-0.06-0.33,0-0.55c0.11-0.34,0.35-0.54,0.72-0.6c0.37-0.06,0.61-0.08,0.72-0.08
			c2.1-0.34,4.7-0.51,7.82-0.51h3.91c5.04,0,8.84-0.06,11.39-0.17l12.84-0.6c1.93-0.11,3.43-0.17,4.51-0.17l2.21-0.08
			c1.08,0,1.84,0.43,2.3,1.28c0.96,1.53,1.93,3.37,2.89,5.53c0.11,0.34,0.17,0.57,0.17,0.68c0,0.4-0.14,0.68-0.42,0.85
			c-0.11,0.11-0.28,0.17-0.51,0.17c-0.4,0-0.74-0.14-1.02-0.43l-4.85-4.34c-0.34-0.34-0.77-0.51-1.28-0.51
			c-5.56,0.34-9.61,0.57-12.16,0.68l-6.46,0.25c-0.45,0-0.65,0.26-0.6,0.77c0.23,2.5,0.34,5.33,0.34,8.5l-0.09,11.22v2.81
			c0,0.11,0.01,0.33,0.04,0.64c0.03,0.31,0.08,0.51,0.17,0.6s0.24,0.13,0.47,0.13l0.77-0.08c2.72-0.34,5.44-0.51,8.16-0.51
			c0.57,0,1.08-0.23,1.53-0.68c0.96-0.96,1.7-1.64,2.21-2.04c0.4-0.28,0.65-0.42,0.77-0.42c0.23,0,0.4,0.31,0.51,0.94
			c0.11,1.13,0.17,1.96,0.17,2.46c0,0.91-0.06,2.21-0.17,3.91c-0.11,0.57-0.37,0.91-0.77,1.02l-0.25,0.09c-0.23,0-0.48-0.2-0.77-0.6
			c-0.74-1.25-1.76-1.87-3.06-1.87c-0.45,0-0.79,0.03-1.02,0.09c-1.25,0.23-3.15,0.4-5.7,0.51c-1.08,0-1.9,0.03-2.47,0.08
			c-0.45,0-0.68,0.23-0.68,0.68l-0.08,6.63c-0.11,2.95-0.17,5.16-0.17,6.63c-0.06,0.96-0.07,1.8-0.04,2.51
			c0.03,0.71,0.04,1.32,0.04,1.83v2.12c0.06,0.51,0.13,0.81,0.21,0.89s0.35,0.13,0.81,0.13c1.3,0.06,3.32,0.03,6.04-0.08
			c1.36-0.11,2.38-0.17,3.06-0.17c5.44-0.11,9.55-0.17,12.33-0.17c0.85,0,1.53-0.23,2.04-0.68l1.79-1.28
			c1.42-0.96,2.38-1.64,2.89-2.04c0.62-0.57,1.16-0.68,1.62-0.34c0.23,0.17,0.34,0.43,0.34,0.77c0,0.28-0.11,0.62-0.34,1.02
			c-0.74,1.3-1.84,2.92-3.32,4.85c-0.28,0.45-0.77,0.68-1.45,0.68l-5.61,0.08c-2.61,0.11-4.51,0.17-5.7,0.17
			c-7.88,0-14.43,0.17-19.64,0.51c-5.1,0.34-8.93,0.57-11.48,0.68C72.16,186.52,71.6,186.49,71.26,186.43z"/>
		<path class="st0" d="M174.57,185.84h-7.06c-0.79,0-1.19-0.2-1.19-0.59c0-0.28,0.11-0.62,0.34-1.02l2.04-3.91
			c0.23-0.4,0.34-0.82,0.34-1.28c0-0.28-0.03-0.51-0.08-0.68c-0.34-0.96-0.74-2.47-1.19-4.51c-0.11-0.45-0.21-0.72-0.3-0.81
			s-0.35-0.1-0.81-0.04c-2.67,0.06-6.72,0.31-12.16,0.77c-3.74,0.28-8.25,0.43-13.52,0.43l-1.02-0.09l-1.28-0.17
			c-0.11,0-0.21,0.04-0.3,0.13s-0.17,0.24-0.25,0.47c-0.09,0.23-0.21,0.48-0.38,0.76c-0.74,1.48-1.22,2.54-1.45,3.19
			c-0.23,0.65-0.34,1.46-0.34,2.42c0,1.02,0.03,1.9,0.08,2.64c0.06,0.17,0.08,0.45,0.08,0.85l0.08,0.51c0,0.28-0.08,0.47-0.25,0.55
			s-0.45,0.16-0.85,0.21h-3.4c-0.74,0.06-1.79,0.08-3.15,0.08c-0.11,0-0.33-0.01-0.64-0.04c-0.31-0.03-0.52-0.24-0.64-0.64v-0.17
			c0-0.28,0.2-0.62,0.6-1.02c1.25-1.13,2.95-2.95,5.1-5.44c0.17-0.17,0.31-0.45,0.43-0.85l2.38-6.04c1.59-4.19,2.98-7.68,4.17-10.46
			l3.15-7.06c0.4-0.91,0.85-2.01,1.36-3.32c0.51-1.3,0.91-2.32,1.19-3.06c0.4-1.19,0.88-2.49,1.45-3.91l4.42-10.97
			c0.06-0.17,0.13-0.34,0.21-0.51c0.08-0.17,0.16-0.34,0.21-0.51c0.51-1.3,1.47-1.96,2.89-1.96h11.65h5.53l0.42-0.08
			c0.23,0,0.48,0.14,0.77,0.43c0.11,0.23,0.17,0.4,0.17,0.51c0,0.11-0.14,0.4-0.43,0.85l-1.62,2.47c-0.28,0.4-0.42,0.74-0.42,1.02
			l0.17,0.68l6.04,20.24c1.64,5.44,3.17,10.2,4.59,14.29c0.4,1.08,0.94,2.69,1.62,4.85c1.25,3.74,2.32,6.75,3.23,9.01
			c0.06,0.17,0.08,0.37,0.08,0.59c0,0.34-0.25,0.6-0.77,0.77l-0.68,0.08l-10.63,0.42V185.84z M143.62,170.19
			c2.61,0,5.58-0.06,8.93-0.17c3.34-0.11,5.7-0.2,7.06-0.25l6.55-0.26c0-0.34-0.06-0.64-0.17-0.89c-0.11-0.25-0.2-0.44-0.26-0.55
			l-1.02-2.63c-1.13-2.66-2.04-5.04-2.72-7.14c-0.23-0.85-0.54-1.8-0.94-2.85c-0.4-1.05-0.68-1.83-0.85-2.34
			c-0.45-1.13-1.08-2.83-1.87-5.1c-0.11-0.45-0.24-0.85-0.38-1.19c-0.14-0.34-0.27-0.62-0.38-0.85l-0.68-1.79
			c-1.08-2.66-1.79-4.76-2.13-6.29c-0.17-0.68-0.45-1.33-0.85-1.96l-0.34,0.68c-0.34,0.79-1.53,3.63-3.57,8.5l-1.02,2.38l-1.7,4.08
			c-0.34,0.96-0.91,2.35-1.7,4.17c-2.61,6.01-4.42,10.57-5.44,13.69c0,0.06-0.04,0.17-0.13,0.34c-0.09,0.17-0.07,0.31,0.04,0.43
			H143.62z"/>
		<path class="st0" d="M193.53,186.01c0,0-0.08-0.2-0.26-0.59c-0.06-0.11-0.08-0.26-0.08-0.43c0-0.4,0.17-0.76,0.51-1.11l2.04-2.04
			c0.74-0.62,1.23-1.28,1.49-1.96c0.25-0.68,0.35-1.5,0.3-2.47c-0.34-3.46-0.51-7.77-0.51-12.92v-3.57
			c0.06-1.76,0.04-3.74-0.04-5.95c-0.08-2.21-0.13-3.74-0.13-4.59c-0.11-3.97-0.17-6.94-0.17-8.93c0-2.44,0.03-4.28,0.08-5.53v-0.25
			c0-0.79-0.34-1.36-1.02-1.7c-1.36-0.62-2.38-1.22-3.06-1.79l-0.68-0.51c-0.17-0.17-0.25-0.4-0.25-0.68c0-0.17,0.07-0.34,0.21-0.51
			c0.14-0.17,0.33-0.28,0.55-0.34c0.91-0.11,1.62-0.17,2.13-0.17l10.88-0.25c0.4,0,0.99-0.06,1.79-0.17
			c1.02-0.11,1.81-0.17,2.38-0.17c4.53-0.23,7.94-0.34,10.2-0.34c1.76,0,3.09,0.03,4,0.08c0.91,0.11,1.64,0.23,2.21,0.34l1.79,0.6
			c2.72,0.85,4.68,1.59,5.87,2.21c0.91,0.45,2.15,1.3,3.74,2.55c1.25,1.08,2.1,2.52,2.55,4.34c0.45,1.81,0.71,3.23,0.76,4.25
			c0.06,0.51,0.08,1.25,0.08,2.21c0,1.93-0.28,3.6-0.85,5.02c-0.17,0.57-0.46,1.67-0.85,3.32c-0.28,0.91-0.67,1.74-1.15,2.51
			c-0.48,0.77-0.98,1.47-1.49,2.12c-0.51,0.65-0.88,1.12-1.11,1.4c-1.53,1.93-3.35,3.17-5.44,3.74c2.1,1.25,3.83,3.18,5.19,5.78
			l2.04,3.74c0.51,0.91,1.02,1.62,1.53,2.13c0.62,0.62,1.3,0.93,2.04,0.93c0.57,0,1.11-0.17,1.62-0.51c0.4-0.23,0.82-0.57,1.28-1.02
			c0.45-0.45,0.79-0.77,1.02-0.94l1.28-1.28l0.85-0.85c0.51-0.4,0.94-0.42,1.28-0.08c0.17,0.17,0.25,0.37,0.25,0.59
			c0,0.23-0.08,0.42-0.25,0.59c-1.25,1.82-2.04,2.92-2.38,3.32l-4.25,5.7c-1.3,1.7-3.15,3-5.53,3.91c-0.62,0.23-1.28,0.34-1.96,0.34
			c-1.02,0-1.96-0.31-2.81-0.94c-0.91-0.62-1.71-1.36-2.42-2.21c-0.71-0.85-1.46-1.9-2.25-3.15c-2.89-4.65-4.82-7.96-5.78-9.95
			c-0.4-0.79-0.91-1.59-1.53-2.38c-1.25-1.53-2.78-2.3-4.59-2.3c-0.45,0-0.82,0.03-1.11,0.09c-0.4,0-0.6,0.2-0.6,0.59v0.34
			c0.06,1.65,0.03,4.05-0.08,7.23l-0.08,5.44c0,0.79,0.23,1.45,0.68,1.96c0.4,0.45,0.77,0.99,1.11,1.62
			c0.62,0.96,0.99,1.5,1.11,1.62c0.23,0.34,0.34,0.57,0.34,0.68c0,0.45-0.31,0.74-0.94,0.85c-0.85,0.17-1.73,0.25-2.64,0.25
			c-1.98,0.11-4.99,0.17-9.01,0.17h-5.95h-2.81C193.9,186.01,193.53,186.01,193.53,186.01z M221.25,160.84
			c1.7-1.02,3.03-2.27,4-3.74c0.68-0.96,1.28-2.29,1.79-4l0.77-1.96c0.45-0.91,0.68-1.98,0.68-3.23c0-0.62-0.03-1.08-0.08-1.36
			c-0.06-0.45-0.16-1.23-0.3-2.34c-0.14-1.1-0.35-2.05-0.64-2.85c-0.91-2.55-2.29-4.99-4.17-7.31c-0.96-1.13-2.07-1.7-3.32-1.7
			c-0.85-0.06-1.6-0.07-2.25-0.04c-0.65,0.03-1.21,0.04-1.66,0.04h-1.96c-0.51,0.06-0.81,0.13-0.89,0.21
			c-0.08,0.09-0.13,0.33-0.13,0.72c0.06,1.25,0.04,2.64-0.04,4.17c-0.08,1.53-0.13,2.61-0.13,3.23c-0.17,2.04-0.25,4.11-0.25,6.21
			v7.57v2.04c0,0.45-0.01,1.02-0.04,1.7c-0.03,0.68-0.01,1.47,0.04,2.38c0,0.46,0.04,0.74,0.13,0.85c0.08,0.11,0.35,0.17,0.81,0.17
			c0.57,0.06,1.42,0.08,2.55,0.08C218.41,161.69,220.11,161.4,221.25,160.84z"/>
		<path class="st0" d="M305.85,186.35c0,0-0.08,0-0.25,0c-0.34,0-0.71-0.2-1.11-0.59c-3.86-3.85-8.79-9.32-14.79-16.41l-3.15-3.74
			l-5.1-6.12l-4.17-4.68c-3.46-3.91-5.5-6.24-6.12-6.97l-3.32-3.74l-2.21-2.47l-0.26-0.42c-0.11,0.11-0.17,0.25-0.17,0.42
			c0,1.65,0.06,4.05,0.17,7.23c0.06,0.85,0.08,2.16,0.08,3.91c0,1.47-0.06,3.74-0.17,6.8c-0.11,3.74-0.14,6.55-0.08,8.42
			c0,4.82,0.14,8.96,0.43,12.41c0,0.34,0.11,0.59,0.34,0.76c0.28,0.34,0.71,0.84,1.28,1.49c0.57,0.65,1.08,1.18,1.53,1.57
			c0.17,0.17,0.25,0.37,0.25,0.59c0,0.28-0.14,0.51-0.42,0.68c-0.34,0.17-0.71,0.25-1.11,0.25l-9.27,0.08
			c-0.51,0-0.82-0.14-0.94-0.42c-0.06-0.06-0.08-0.17-0.08-0.34c0-0.23,0.11-0.45,0.34-0.68c0.51-0.62,1.36-1.47,2.55-2.55
			c0.23-0.23,0.45-0.44,0.68-0.64c0.23-0.2,0.4-0.37,0.51-0.51c0.11-0.14,0.17-0.3,0.17-0.47c0-2.15-0.08-4.28-0.25-6.38
			c-0.11-2.15-0.17-3.77-0.17-4.85c-0.11-4.87-0.17-8.5-0.17-10.88v-4.59c0-6.41,0.17-11.71,0.51-15.9v-0.34
			c0-0.45-0.2-0.85-0.59-1.19c-0.46-0.4-1.19-0.94-2.21-1.62l-1.62-1.02c-0.29-0.17-0.61-0.37-0.98-0.6
			c-0.37-0.23-0.78-0.51-1.23-0.85c-0.28-0.17-0.43-0.37-0.43-0.6c0.11-0.4,0.28-0.62,0.51-0.68c0.11-0.06,0.31-0.09,0.59-0.09
			c2.1-0.23,4.51-0.34,7.23-0.34c0.4-0.06,0.99-0.08,1.79-0.08c5.44-0.11,9.52-0.17,12.24-0.17c0.62,0,1.15,0.1,1.57,0.3
			c0.43,0.2,0.81,0.55,1.15,1.06l1.02,1.36c4.65,6.97,9.32,12.87,14.03,17.69c0.4,0.4,1.33,1.53,2.81,3.4
			c1.25,1.59,2.24,2.75,2.98,3.49c0.45,0.45,0.86,0.91,1.23,1.36c0.37,0.45,0.69,0.85,0.98,1.19l1.53,1.79
			c0.11-0.17,0.17-0.37,0.17-0.59c0-1.59-0.06-3.91-0.17-6.97l-0.08-3.49c-0.11-3.51-0.17-6.15-0.17-7.91
			c0-2.95,0.11-5.55,0.34-7.82c0-0.57-0.17-0.96-0.51-1.19l-2.38-1.87c-0.23-0.17-0.42-0.37-0.59-0.6c-0.11-0.11-0.17-0.31-0.17-0.6
			c0-0.45,0.23-0.74,0.68-0.85c3.85-0.45,6.75-0.62,8.67-0.51c0.51,0.11,0.82,0.31,0.94,0.6v0.17c0,0.17-0.17,0.43-0.51,0.77
			c-0.45,0.28-0.95,0.69-1.49,1.23c-0.54,0.54-0.95,0.95-1.23,1.23c-0.11,0.11-0.17,0.34-0.17,0.68l-0.08,17.35l0.08,9.1v15.48
			c0,1.36,0.06,3.35,0.17,5.95l0.08,1.28c0,0.4-0.06,0.99-0.17,1.79c-0.06,0.68-0.51,1.13-1.36,1.36
			C305.91,186.32,305.85,186.35,305.85,186.35z"/>
		<path class="st0" d="M322.43,186.43c-0.68-0.17-1.02-0.48-1.02-0.93c0-0.23,0.14-0.54,0.42-0.94c1.19-1.36,2.21-2.66,3.06-3.91
			c0.34-0.45,0.48-0.91,0.42-1.36c-0.17-2.38-0.25-5.95-0.25-10.71l-0.17-7.99l-0.17-4.42c-0.23-6.01-0.46-10.54-0.68-13.6
			c-0.06-0.79-0.08-2.01-0.08-3.66c0-0.79-0.37-1.56-1.11-2.3l-3.66-3.66c-0.11-0.11-0.25-0.24-0.42-0.38
			c-0.17-0.14-0.28-0.28-0.34-0.42c-0.06-0.14-0.06-0.33,0-0.55c0.11-0.34,0.35-0.54,0.72-0.6c0.37-0.06,0.61-0.08,0.72-0.08
			c2.1-0.34,4.7-0.51,7.82-0.51h3.91c5.04,0,8.84-0.06,11.39-0.17l12.84-0.6c1.93-0.11,3.43-0.17,4.51-0.17l2.21-0.08
			c1.08,0,1.84,0.43,2.3,1.28c0.96,1.53,1.93,3.37,2.89,5.53c0.11,0.34,0.17,0.57,0.17,0.68c0,0.4-0.14,0.68-0.43,0.85
			c-0.11,0.11-0.28,0.17-0.51,0.17c-0.4,0-0.74-0.14-1.02-0.43l-4.85-4.34c-0.34-0.34-0.76-0.51-1.28-0.51
			c-5.56,0.34-9.61,0.57-12.16,0.68l-6.46,0.25c-0.45,0-0.65,0.26-0.59,0.77c0.23,2.5,0.34,5.33,0.34,8.5l-0.08,11.22v2.81
			c0,0.11,0.01,0.33,0.04,0.64c0.03,0.31,0.08,0.51,0.17,0.6s0.24,0.13,0.47,0.13l0.77-0.08c2.72-0.34,5.44-0.51,8.16-0.51
			c0.57,0,1.08-0.23,1.53-0.68c0.96-0.96,1.7-1.64,2.21-2.04c0.4-0.28,0.65-0.42,0.76-0.42c0.23,0,0.4,0.31,0.51,0.94
			c0.11,1.13,0.17,1.96,0.17,2.46c0,0.91-0.06,2.21-0.17,3.91c-0.11,0.57-0.37,0.91-0.77,1.02l-0.25,0.09c-0.23,0-0.48-0.2-0.77-0.6
			c-0.74-1.25-1.76-1.87-3.06-1.87c-0.46,0-0.79,0.03-1.02,0.09c-1.25,0.23-3.15,0.4-5.7,0.51c-1.08,0-1.9,0.03-2.47,0.08
			c-0.45,0-0.68,0.23-0.68,0.68l-0.08,6.63c-0.11,2.95-0.17,5.16-0.17,6.63c-0.06,0.96-0.07,1.8-0.04,2.51
			c0.03,0.71,0.04,1.32,0.04,1.83v2.12c0.06,0.51,0.13,0.81,0.21,0.89s0.35,0.13,0.81,0.13c1.3,0.06,3.32,0.03,6.04-0.08
			c1.36-0.11,2.38-0.17,3.06-0.17c5.44-0.11,9.55-0.17,12.33-0.17c0.85,0,1.53-0.23,2.04-0.68l1.79-1.28
			c1.42-0.96,2.38-1.64,2.89-2.04c0.62-0.57,1.16-0.68,1.62-0.34c0.23,0.17,0.34,0.43,0.34,0.77c0,0.28-0.11,0.62-0.34,1.02
			c-0.74,1.3-1.84,2.92-3.32,4.85c-0.28,0.45-0.77,0.68-1.45,0.68l-5.61,0.08c-2.61,0.11-4.51,0.17-5.7,0.17
			c-7.88,0-14.43,0.17-19.64,0.51c-5.1,0.34-8.93,0.57-11.48,0.68C323.34,186.52,322.77,186.49,322.43,186.43z"/>
		<path class="st0" d="M389.69,185.84c0,0-0.06-0.2-0.17-0.59c-0.06-0.11-0.08-0.26-0.08-0.43c0-0.34,0.17-0.62,0.51-0.85
			c-0.11,0.11,0.96-0.79,3.23-2.72c0.28-0.23,0.43-0.54,0.43-0.93c0-2.72-0.11-6.86-0.34-12.42c-0.06-1.59,0.03-3.97,0.25-7.14
			c0-0.4-0.08-0.71-0.25-0.93c-0.51-0.96-2.07-3.97-4.68-9.01l-1.28-2.64l-1.53-3.06c-0.62-1.36-1.36-2.86-2.21-4.51
			c-0.45-0.91-1.02-1.81-1.7-2.72c-0.51-0.62-1.02-1.42-1.53-2.38l-0.34-0.34c-1.7-1.13-3-1.9-3.91-2.3l-0.34-0.17
			c-0.06-0.06-0.18-0.17-0.38-0.34c-0.2-0.17-0.3-0.37-0.3-0.6c0-0.57,0.37-0.85,1.11-0.85c5.78-0.57,11.05-0.85,15.82-0.85
			c0.85,0.06,2.15,0.03,3.91-0.08c0.06-0.06,0.2-0.08,0.43-0.08c0.06,0,0.2,0.03,0.42,0.08c0.23,0.06,0.4,0.2,0.51,0.43
			c0.06,0.11,0.09,0.25,0.09,0.43c0,0.28-0.11,0.54-0.34,0.77l-2.3,2.13c-0.28,0.17-0.31,0.4-0.08,0.68
			c1.53,2.38,3.09,5.09,4.68,8.12c1.59,3.03,3.09,5.99,4.51,8.89c0.17,0.45,0.48,1.13,0.94,2.04l1.53,3.15l0.25,0.26
			c0.91-2.27,1.81-4.2,2.72-5.78c3.23-6.01,5.9-10.54,7.99-13.6l1.53-2.47c0.23-0.28,0.2-0.54-0.08-0.77
			c-0.28-0.23-0.55-0.44-0.81-0.64c-0.25-0.2-0.5-0.38-0.72-0.55l-0.94-0.77c-0.34-0.23-0.45-0.57-0.34-1.02
			c0.17-0.34,0.48-0.57,0.93-0.68c1.47-0.11,2.64-0.17,3.49-0.17c0.51-0.06,1.28-0.08,2.3-0.08c0.45,0,1.01,0.01,1.66,0.04
			c0.65,0.03,1.43,0.01,2.34-0.04h0.34c0.45,0.11,0.71,0.31,0.76,0.6c0,0.34-0.2,0.6-0.59,0.77c-0.85,0.34-1.73,0.77-2.64,1.28
			c-1.36,0.68-2.27,1.62-2.72,2.81c-0.57,1.19-1.36,2.61-2.38,4.25c-2.15,3.46-4.76,7.96-7.82,13.52l-2.04,3.74l-1.36,2.21
			c-0.17,0.34-0.25,0.65-0.25,0.94c0.23,2.1,0.34,4.51,0.34,7.23c0,2.89-0.08,5.78-0.25,8.67c0,0.85-0.06,2.13-0.17,3.83
			c0,0.4,0.14,0.71,0.42,0.94c0.62,0.45,1.22,1.02,1.79,1.7l1.36,1.28c0.28,0.28,0.37,0.59,0.25,0.93
			c-0.06,0.34-0.34,0.51-0.85,0.51c-1.81,0-4.59,0.06-8.33,0.17c-3.74,0.11-6.52,0.17-8.33,0.17h-3.49
			C390,185.84,389.69,185.84,389.69,185.84z"/>
	</g>
	<g>
		<path class="st1" d="M120.27,161.47c0,0-0.07-1.27-0.19-3.81c0-1.78,0.38-3.55,1.14-5.33c2.41-5.71,6.92-11.61,13.52-17.7
			c4.06-3.93,9.45-8.06,16.18-12.37c-1.4-1.52-2.95-2.6-4.66-3.24c-1.71-0.63-3.78-1.2-6.19-1.71c-2.41-0.51-6.09-0.76-11.04-0.76
			h-4.76c-2.92,0-5.08-0.19-6.47-0.57c-2.03-0.51-3.05-1.46-3.05-2.86c0-1.01,0.32-1.9,0.95-2.67c2.28-3.3,6.22-7.11,11.8-11.42
			c9.52-7.49,18.21-13.26,26.08-17.32c3.05-1.52,5.58-2.22,7.61-2.09c1.27,0,2.25,0.29,2.95,0.86c0.7,0.57,1.05,1.3,1.05,2.19
			c0,0.38-0.13,0.95-0.38,1.71c-0.26,1.02-1.08,2.73-2.47,5.14c-0.13,0.26-0.35,0.6-0.67,1.05c-0.32,0.45-0.22,0.86,0.29,1.24
			c0,0.13-0.13,0.32-0.38,0.57c-0.64,0.26-1.4,0.95-2.28,2.09c-0.64,0.89-1.33,1.08-2.09,0.57c-0.38-0.25-0.45-0.57-0.19-0.95
			c0.25-0.38,0.44-0.63,0.57-0.76c2.41-3.68,3.87-6.41,4.38-8.19l0.57-1.9c0-1.9-0.76-2.54-2.28-1.9c-2.03,0.51-3.49,1.02-4.38,1.52
			c-6.98,4.06-13.3,8.06-18.94,11.99c-5.65,3.94-10.82,8.25-15.51,12.94c-1.65,1.65-2.73,2.98-3.24,4
			c-0.38,0.51-0.57,1.02-0.57,1.52c0,0.64,0.57,1.08,1.71,1.33c0.76,0.13,1.97,0.19,3.62,0.19c5.33,0,9.52,0.1,12.56,0.29
			s6.15,0.73,9.33,1.62c3.3,1.02,5.77,2.22,7.42,3.62c0.51,0.51,1.08,0.57,1.71,0.19l18.66-9.52c0.25,0,0.44-0.06,0.57-0.19
			c0.38-0.12,0.73-0.16,1.05-0.1c0.31,0.07,0.54,0.22,0.67,0.48c0.25,0.51-0.13,0.89-1.14,1.14c-6.73,2.92-12.75,6.03-18.08,9.33
			c-0.51,0.26-0.83,0.54-0.95,0.86c-0.13,0.32-0.07,0.79,0.19,1.43c0.76,1.65,1.14,3.36,1.14,5.14c0,1.78-0.45,3.87-1.33,6.28
			c-1.14,3.05-2.73,5.78-4.76,8.19c-2.03,2.41-4.7,5.2-8,8.38c-3.68,3.55-7.74,6.41-12.18,8.57c-1.65,0.63-3.24,0.95-4.76,0.95
			C121.86,161.47,120.27,161.47,120.27,161.47z M128.84,158.42c9.26-5.2,16.24-11.74,20.94-19.61c2.16-3.55,3.3-6.92,3.43-10.09
			c0-1.27-0.19-2.47-0.57-3.62c-0.26-0.89-0.76-1.08-1.52-0.57c-10.41,6.85-18.27,14.21-23.6,22.08c-1.4,2.03-2.45,3.78-3.14,5.23
			c-0.7,1.46-1.11,3.01-1.24,4.66v0.57c0,1.78,0.7,2.67,2.09,2.67l1.71-0.38L128.84,158.42z"/>
		<path class="st1" d="M202.13,144.91c-2.16,0-3.78-0.73-4.85-2.19c-1.08-1.46-1.49-3.52-1.24-6.19c0.38-3.93,1.14-7.8,2.28-11.61
			c0.25-1.14,1.14-4.25,2.67-9.33c0-0.25,0.12-0.63,0.38-1.14c0.25-0.51,0.25-1.01,0-1.52c1.14-1.78,2.06-3.9,2.76-6.38
			c0.7-2.47,1.24-4.28,1.62-5.43c-2.16,1.14-3.43,2.73-3.81,4.76c-0.51,3.3-0.7,5.65-0.57,7.04h-0.57c-0.76,0-1.27-0.22-1.52-0.67
			c-0.26-0.44-0.38-0.98-0.38-1.62c0-0.63-0.07-1.14-0.19-1.52h-0.19c-0.51,0-0.89,0.19-1.14,0.57c-0.26,0.38-0.45,0.64-0.57,0.76
			l-17.13,20.75c-0.76,0.76-2,2.09-3.71,4c-1.71,1.9-3.4,3.55-5.04,4.95c-1.78,1.52-3.3,2.47-4.57,2.86
			c-0.38,0.13-0.89,0.19-1.52,0.19c-1.14,0-2.03-0.38-2.67-1.14c-0.63-0.76-0.89-1.78-0.76-3.05c0.26-2.03,0.57-3.55,0.95-4.57
			c6.47-17,14.34-31.34,23.6-43.02c1.52-2.03,3.3-3.81,5.33-5.33c1.52-1.01,2.73-1.71,3.62-2.09c1.14-0.51,2.28-0.76,3.43-0.76
			c2.79,0,4.44,1.71,4.95,5.14c0.25,0.76,0.38,1.97,0.38,3.62c0,1.52-0.07,2.73-0.19,3.62c0,0.26-0.07,0.67-0.19,1.24
			c-0.13,0.57,0,1.11,0.38,1.62l3.24-2.47c0.76-0.25,1.2-0.38,1.33-0.38c0.63,0,1.11,0.26,1.43,0.76c0.31,0.51,0.41,1.14,0.29,1.9
			c0,0.26-0.38,1.65-1.14,4.19l-1.9,5.71c-3.3,9.27-5.46,16.56-6.47,21.89c-0.76,3.3-1.14,5.84-1.14,7.61c0,1.9,0.25,3.27,0.76,4.09
			c0.51,0.83,1.39,1.24,2.67,1.24c0.38,0,1.08-0.12,2.09-0.38c1.78-0.51,3.55-1.27,5.33-2.28c10.4-5.71,18.66-12.25,24.75-19.61
			c0.38-0.38,0.98-1.01,1.81-1.9c0.82-0.89,1.39-1.81,1.71-2.76c0.32-0.95,0.41-2,0.29-3.14c0-0.25,0.09-0.44,0.29-0.57
			c0.19-0.12,0.41-0.19,0.67-0.19c1.14,0,1.78,0.38,1.9,1.14c0.12,0.26,0.19,0.57,0.19,0.95c0,0.38-0.07,0.73-0.19,1.05
			c-0.13,0.32-0.26,0.6-0.38,0.86c-1.27,2.16-2.6,4-4,5.52c-8.12,9.01-16.44,15.68-24.94,19.99c-3.05,1.52-5.4,2.47-7.04,2.85
			C203.65,144.78,202.63,144.91,202.13,144.91z M169.38,138.44c2.41-2.41,4.76-4.95,7.04-7.61c9.9-11.67,17.26-20.43,22.08-26.27
			c1.01-1.01,1.52-2.09,1.52-3.24c0.51-3.05,0.76-6.47,0.76-10.28c-0.26-2.03-0.64-3.55-1.14-4.57c-0.64-1.4-1.59-1.71-2.86-0.95
			c-1.78,1.02-3.05,1.84-3.81,2.48c-2.54,2.16-4.76,4.57-6.66,7.23c-9.39,13.2-16.18,25.96-20.37,38.26
			c-0.89,2.03-1.33,3.81-1.33,5.33c0,0.64,0.13,1.46,0.38,2.47C166.4,140.91,167.86,139.96,169.38,138.44z"/>
		<path class="st1" d="M225.54,225.62c-2.54,0-4.12-1.4-4.76-4.19c-0.25-1.52-0.38-2.67-0.38-3.43c0-1.4,0.26-3.49,0.76-6.28
			c1.27-7.23,4.7-15.8,10.28-25.7c3.93-6.73,8.53-13.01,13.8-18.85c5.26-5.84,11.71-12.31,19.32-19.42
			c0.25-0.25,2.79-2.41,7.61-6.47c1.27-1.01,2.03-1.9,2.28-2.67l2.09-5.71c3.81-9.64,6.34-17,7.61-22.08
			c0.38-1.14,0.7-2.86,0.95-5.14c0-2.16-0.64-3.36-1.9-3.62h-0.95c-1.4,0-2.35,0.57-2.86,1.71c-0.38,0.76-0.73,1.24-1.05,1.43
			c-0.32,0.19-0.86-0.03-1.62-0.67c-0.13-0.12-0.32-0.19-0.57-0.19c-0.26,0-0.89,0.32-1.9,0.95c-3.3,1.65-8.44,4.89-15.42,9.71
			c-6.35,4.32-11.17,7.42-14.47,9.33c-2.54,1.52-4.57,2.47-6.09,2.86h-1.52c-1.27,0-2.22-0.32-2.86-0.95
			c-0.51-0.51-0.76-1.14-0.76-1.9c0-0.89,0.19-1.71,0.57-2.47c0.26-0.76,0.64-1.52,1.14-2.28c6.22-10.4,14.66-17.83,25.32-22.27
			c2.92-1.52,6.15-2.16,9.71-1.9c3.68,0,6.47,1.33,8.38,4c0.63,0.76,1.33,1.14,2.09,1.14l3.05-0.19c3.05,0.13,4.63,1.71,4.76,4.76
			v0.95c0,1.52-0.19,2.98-0.57,4.38c-0.89,4.06-2.19,8.35-3.9,12.85c-1.71,4.51-2.76,7.27-3.14,8.28c-0.13,0.26-0.32,0.76-0.57,1.52
			c-0.26,0.76-0.45,1.52-0.57,2.28c0.89-0.12,1.65-0.44,2.28-0.95c0.63-0.51,1.08-0.82,1.33-0.95
			c13.07-9.01,26.84-16.05,41.31-21.13c1.9-0.51,3.17-0.82,3.81-0.95c0.25-0.12,0.54-0.1,0.86,0.1c0.31,0.19,0.48,0.41,0.48,0.67
			c0.12,0.64-0.19,1.08-0.95,1.33l-0.95,0.38l-1.52-0.38c-0.76,0-1.56,0.22-2.38,0.67c-0.83,0.45-1.49,0.73-2,0.86
			c-16.63,6.6-30.65,14.34-42.07,23.22c-1.52,1.14-2.67,2.73-3.43,4.76c-7.61,19.04-14.4,33.95-20.37,44.73
			c-6.47,11.55-13.01,21.51-19.61,29.89l-4.95,5.14c-0.63,0.89-1.65,1.65-3.05,2.28C227.32,225.43,226.43,225.62,225.54,225.62z
			 M231.44,218.77c3.68-4.57,7.04-9.07,10.09-13.52c10.79-16.25,20.68-35.79,29.7-58.63c0.25-0.51,0.25-1.14,0-1.9l-5.9,5.14
			c-13.33,11.8-23.48,23.48-30.46,35.03c-5.58,9.14-9.2,18.02-10.85,26.65c-0.5,2.54-0.76,4.38-0.76,5.52c0,1.39,0.19,2.73,0.57,4
			c0.38,1.65,0.95,2.47,1.71,2.47c0.51,0,1.21-0.38,2.09-1.14C228.65,221.75,229.92,220.54,231.44,218.77z M241.34,123.78
			c4.57-2.79,8-4.95,10.28-6.47c3.93-2.67,8.03-5.36,12.28-8.09c4.25-2.73,8.22-5.04,11.9-6.95l0.95-0.76
			c-0.89-1.78-2.54-3.11-4.95-4c-1.14-0.38-2.16-0.57-3.05-0.57c-1.65,0-3.49,0.45-5.52,1.33c-11.17,4.7-19.8,12.31-25.89,22.84
			c-0.51,0.64-0.89,1.59-1.14,2.85c0,1.27,0.51,1.71,1.52,1.33C239.25,124.92,240.45,124.41,241.34,123.78z"/>
		<path class="st1" d="M332.33,153.47c-3.68,0-6.63-1.17-8.85-3.52c-2.22-2.35-3.33-5.62-3.33-9.8v-1.9
			c0-5.33,1.46-12.12,4.38-20.37c3.43-9.77,8.63-18.4,15.61-25.89c2.67-2.79,5.2-4.95,7.61-6.47c1.78-1.14,3.55-1.71,5.33-1.71
			c2.92,0,4.38,1.33,4.38,4c0,0.76-0.13,1.78-0.38,3.05c-1.52,5.08-4.13,9.46-7.8,13.13c-4.44,4.44-9.84,8.31-16.18,11.61
			c-0.26,0.13-0.6,0.35-1.05,0.67c-0.45,0.32-0.86,0.41-1.24,0.29h-0.38c-1.14,0-1.94,0.32-2.38,0.95
			c-0.45,0.64-0.92,1.65-1.43,3.05c-1.52,4.95-2.67,10.03-3.43,15.23c-0.25,3.81,0,6.92,0.76,9.33c1.39,4.32,4.25,6.47,8.57,6.47
			c3.68,0,7.36-1.33,11.04-4c11.42-8.12,21.13-18.34,29.12-30.65c0.12-0.12,0.32-0.44,0.57-0.95c0.25-0.51,0.19-1.08-0.19-1.71
			c-0.13-0.12-0.19-0.32-0.19-0.57c0-0.38,0.44-0.89,1.33-1.52c0.63-0.38,1.27-0.38,1.9,0c0.51,0.51,0.63,1.08,0.38,1.71
			c-0.64,1.78-1.14,2.98-1.52,3.62c-8.25,13.45-17.7,23.73-28.36,30.84c-3.05,2.03-6.16,3.49-9.33,4.38
			C335,153.22,333.35,153.47,332.33,153.47z M333.1,113.88c5.07-2.92,9.39-6.09,12.94-9.52c3.93-3.81,6.53-7.87,7.8-12.18
			c0.12-0.38,0.32-0.95,0.57-1.71c0.25-0.76,0.32-1.4,0.19-1.9c0-1.9-0.57-2.86-1.71-2.86l-1.71,0.38c-1.27,0.51-2.67,1.4-4.19,2.67
			c-6.73,5.84-12.37,13.58-16.94,23.22l-0.19,0.76v0.38c0,0.51,0.16,0.92,0.48,1.24c0.32,0.32,0.73,0.41,1.24,0.29
			C331.83,114.64,332.33,114.39,333.1,113.88z"/>
	</g>
</g>
<g>
</g>
<g>
</g>
<g>
</g>
<g>
</g>
<g>
</g>
<g>
</g>
<g>
</g>
<g>
</g>
<g>
</g>
<g>
</g>
<g>
</g>
<g>
</g>
<g>
</g>
<g>
</g>
<g>
</g>
</svg>
