<?xml version="1.0" encoding="utf-8"?>
<!-- Generator: Adobe Illustrator 23.1.1, SVG Export Plug-In . SVG Version: 6.00 Build 0)  -->
<svg version="1.1" id="Layer_1" xmlns="http://www.w3.org/2000/svg" xmlns:xlink="http://www.w3.org/1999/xlink" x="0px" y="0px"
	 viewBox="0 0 432 288" style="enable-background:new 0 0 432 288;" xml:space="preserve">
<style type="text/css">
	.st0{opacity:0.54;}
	.st1{fill:#F8EADE;}
</style>
<g class="st0">
	<path class="st1" d="M-3.37,89.09c12.4-15.67,31.8-24.54,51.46-28.13c19.66-3.59,39.83-2.43,59.78-1.31
		c33.13,1.86,67.04,3.51,98.84-5.98c18.28-5.45,35.3-14.43,53.16-21.14C307.68,14.6,360.5,13.48,411,21.12
		c8.81,1.33,18.64,3.62,23.24,11.25c2.73,4.53,3.01,10.07,3.21,15.36c1.06,27.93,2.13,55.85,3.19,83.78
		c1.08,28.24,0.96,59.83-18.53,80.29c-20.87,21.91-55.09,22.05-85.34,21.59c-37.68-0.57-75.36,0.3-113.03,1.18
		c-18.15,0.42-36.42,0.86-54.22,4.44c-16.95,3.42-33.21,9.64-50.01,13.73c-40.83,9.94-83.55,7.01-125.47,4.03
		c-2.29-0.16-4.78-0.41-6.45-1.98c-1.75-1.64-2.1-4.25-2.28-6.64c-1.81-25.05,4.95-49.8,9.19-74.55c5.23-30.5,6.66-61.66,4.24-92.51
		c-0.08-0.97-0.37-2.2-1.34-2.35c-0.96-0.16-0.84,1.96-0.08,1.35"/>
</g>
</svg>
